<svg aria-hidden="true" style="position:absolute;width:0;height:0;overflow:hidden" xmlns="http://www.w3.org/2000/svg">
  <defs>
    <symbol id="icon-arr" viewBox="0 0 52 32">
      <path d="M33.369 31.328c-.415-.414-.671-.985-.671-1.617s.256-1.204.671-1.617L45.465 16 33.369 3.906A2.29 2.29 0 1 1 36.602.668l.001.001L50.314 14.38c.415.414.672.986.672 1.618s-.257 1.205-.672 1.618L36.603 31.327c-.414.413-.986.669-1.617.669s-1.203-.256-1.617-.669z"/>
      <path d="M.706 16a2.284 2.284 0 0 1 2.284-2.284h41.135a2.284 2.284 0 1 1 0 4.568H2.988A2.284 2.284 0 0 1 .704 16z"/>
    </symbol>
    <symbol id="icon-burger" viewBox="0 0 39 32">
      <path d="M37.71 5.402H1.674a1.06 1.06 0 0 1-1.058-1.06V2.221c0-.585.474-1.058 1.058-1.058h36.038c.585 0 1.058.474 1.058 1.058v2.121A1.06 1.06 0 0 1 37.71 5.4zm1.059 11.658v-2.118a1.06 1.06 0 0 0-1.06-1.06H1.673a1.06 1.06 0 0 0-1.06 1.058v2.121c0 .586.475 1.06 1.06 1.06H37.71a1.06 1.06 0 0 0 1.06-1.058zm0 10.598v2.119a1.06 1.06 0 0 1-1.06 1.06H1.673a1.06 1.06 0 0 1-1.06-1.058v-2.121c0-.585.475-1.06 1.06-1.06H37.71c.586 0 1.06.475 1.06 1.06z"/>
    </symbol>
    <symbol id="icon-search" viewBox="0 0 31 32">
      <path d="m23.782 21.926 6.855 6.864a.856.856 0 0 1-.034 1.184l-1.2 1.201a.854.854 0 0 1-1.216 0l-6.856-6.864a4.494 4.494 0 0 1-.505-.603l-.01-.015-1.285-1.717a11.913 11.913 0 0 1-7.487 2.625h-.04c-5.68 0-10.438-3.946-11.683-9.247l-.016-.081a11.707 11.707 0 0 1-.304-2.684c0-4.743 2.748-8.845 6.739-10.799l.071-.031A11.819 11.819 0 0 1 12 .578a11.97 11.97 0 0 1 9.391 4.535l.019.025a11.947 11.947 0 0 1 2.588 7.452c0 2.87-1.006 5.506-2.684 7.573l.017-.022 1.714 1.184c.267.171.514.374.737.601zM3.471 12.59c0 4.739 3.837 8.581 8.569 8.581 2.367 0 4.51-.961 6.06-2.513a8.556 8.556 0 0 0 2.51-6.066v-.002c0-4.738-3.837-8.579-8.57-8.579-4.733 0-8.569 3.841-8.569 8.579z"/>
    </symbol>
    <symbol id="icon-store" viewBox="0 0 31 32">
      <path d="M5.739 3.657 4.867 2.1A3.085 3.085 0 0 0 2.203.572H.772a.77.77 0 0 0-.771.771v1.543a.77.77 0 0 0 .771.771h1.419l6.612 11.569c.119.19.256.366.408.527l-2.867 5.702a1.19 1.19 0 0 0-.003 1.102l.343.59c.205.34.578.566 1.004.566H27a.77.77 0 0 0 .771-.771v-1.543a.77.77 0 0 0-.771-.771H10.214l1.543-3.224-.03-.007c.324.087.663.137 1.017.145h9.616a4.542 4.542 0 0 0 3.868-2.329l3.607-6.339a7.306 7.306 0 0 0 1.022-3.675v-.771a.77.77 0 0 0-.771-.771H5.74zm3.518 21.6a3.086 3.086 0 0 0 0 6.172 3.086 3.086 0 0 0 0-6.172zm18.514 3.086a3.086 3.086 0 0 1-6.172 0 3.086 3.086 0 0 1 6.172 0z"/>
    </symbol>
    <symbol id="icon-user" viewBox="0 0 31 32">
      <path d="M15.407.593C6.897.593 0 7.491 0 16s6.898 15.407 15.407 15.407S30.814 24.509 30.814 16 23.916.593 15.407.593zm0 4.622a4.622 4.622 0 1 1 0 9.244 4.622 4.622 0 1 1 0-9.244zm0 21.55c3.534 0 6.672-1.7 8.639-4.327l.02-.028a1.536 1.536 0 0 0 .102-1.565l.004.009-.353-.724c-.769-1.544-2.335-2.586-4.145-2.588h-8.535a4.622 4.622 0 0 0-4.163 2.622l-.012.028-.324.678a1.539 1.539 0 0 0 .11 1.546l-.003-.005c1.987 2.655 5.125 4.356 8.659 4.356h.001z"/>
    </symbol>
  </defs>
</svg>
